<?xml version="1.0" encoding="utf-8"?><svg id="Layer_1" style="enable-background:new 0 0 240 240;" version="1.1" viewBox="0 0 240 240" x="0px" xml:space="preserve" xmlns="http://www.w3.org/2000/svg" xmlns:ns1="http://www.w3.org/1999/xlink" xmlns:openbadges="http://openbadges.org" y="0px"><openbadges:assertion verify="https://api.badgr.io/public/assertions/S3wFplPZTMmDDSXNRez1zw"><![CDATA[{
  "@context": "https://w3id.org/openbadges/v2",
  "type": "Assertion",
  "id": "https://api.badgr.io/public/assertions/S3wFplPZTMmDDSXNRez1zw",
  "badge": "https://api.badgr.io/public/badges/rcCUuUtYSGeJEvMnUniJow",
  "image": "https://api.badgr.io/public/assertions/S3wFplPZTMmDDSXNRez1zw/image",
  "verification": {
    "type": "HostedBadge"
  },
  "issuedOn": "2021-06-26T18:20:34.733352+00:00",
  "recipient": {
    "hashed": true,
    "type": "email",
    "identity": "sha256$404d24a49b3536ed985b45731202ee57ee0a51e7a2299f7e36380a1346c12c7d",
    "salt": "239c5e0f1ccf4cd480ca0fc98c3c3c60"
  }
}]]></openbadges:assertion>
<style type="text/css">
	.st0{fill:none;}
	.st1{fill:#002731;}
	.st2{fill:#103144;}
	.st3{fill:#F7F9FB;}
	.st4{fill:#034859;}
	.st5{font-family:'ArialMT';}
	.st6{font-size:7.0193px;}
	.st7{fill:#FFFFFF;}
	.st8{clip-path:url(#SVGID_2_);}
	.st9{clip-path:url(#SVGID_4_);fill:#F7F9FB;}
	.st10{fill:#006881;}
</style>
<g>
	<rect class="st0" height="234" width="240" y="6"/>
	<ellipse class="st1" cx="120" cy="122.7" rx="84" ry="81.9"/>
	<ellipse class="st1" cx="120" cy="122.7" rx="84" ry="81.9"/>
	<ellipse class="st1" cx="120" cy="122.7" rx="84" ry="81.9"/>
	<path class="st2" d="M29.5,54.9c0-3.7,3.1-6.7,6.9-6.7c3.8,0,6.8,3,6.8,6.7c0,3.7-3.1,6.7-6.8,6.7C32.6,61.5,29.5,58.6,29.5,54.9z    M40.6,54.9c0-2.3-1.9-4.1-4.2-4.1c-2.3,0-4.2,1.8-4.2,4.1s1.9,4.1,4.2,4.1C38.7,59,40.6,57.1,40.6,54.9z"/>
	<path class="st2" d="M45.9,61.3V49.9l2.6-1.8v13.2L45.9,61.3L45.9,61.3z"/>
	<path class="st2" d="M52.1,61.3V49.9l2.6-1.8v13.2L52.1,61.3L52.1,61.3z"/>
	<path class="st2" d="M57.4,54.9c0-3.7,3.1-6.7,6.9-6.7s6.8,3,6.8,6.7c0,3.7-3.1,6.7-6.8,6.7S57.4,58.6,57.4,54.9z M68.4,54.9   c0-2.3-1.9-4.1-4.2-4.1c-2.3,0-4.2,1.8-4.2,4.1s1.9,4.1,4.2,4.1C66.5,59,68.4,57.1,68.4,54.9z"/>
	<path class="st2" d="M72.9,54.9c0-3.7,3.1-6.7,6.9-6.7s6.8,3,6.8,6.7c0,3.7-3.1,6.7-6.8,6.7C76,61.5,72.9,58.6,72.9,54.9z    M83.9,54.9c0-2.3-1.9-4.1-4.2-4.1s-4.2,1.8-4.2,4.1s1.9,4.1,4.2,4.1C82.1,59,83.9,57.1,83.9,54.9z"/>
	<path class="st2" d="M88.4,54.9c0-3.7,3.1-6.7,6.9-6.7s6.8,3,6.8,6.7c0,3.7-3.1,6.7-6.8,6.7S88.4,58.6,88.4,54.9z M99.5,54.9   c0-2.3-1.9-4.1-4.2-4.1S91,52.6,91,54.9s1.9,4.1,4.2,4.1S99.5,57.1,99.5,54.9z"/>
	<path class="st2" d="M104.8,61.3V49.9l2.6-1.8v13.2L104.8,61.3L104.8,61.3z"/>
	<path class="st2" d="M110.9,61.3V49.9l2.6-1.8v13.2L110.9,61.3L110.9,61.3z"/>
	<path class="st2" d="M121.7,54.9c0-3.7,3.1-6.7,6.9-6.7c3.8,0,6.8,3,6.8,6.7c0,3.7-3.1,6.7-6.8,6.7   C124.8,61.5,121.7,58.6,121.7,54.9z M132.8,54.9c0-2.3-1.9-4.1-4.2-4.1c-2.3,0-4.2,1.8-4.2,4.1s1.9,4.1,4.2,4.1   C130.9,59,132.8,57.1,132.8,54.9z"/>
	<path class="st2" d="M138.1,61.3V49.9l2.6-1.8v13.2L138.1,61.3L138.1,61.3z"/>
	<path class="st2" d="M144.2,61.3V49.9l2.6-1.8v13.2L144.2,61.3L144.2,61.3z"/>
	<path class="st2" d="M150.4,61.3V49.9l2.6-1.8v13.2L150.4,61.3L150.4,61.3z"/>
	<path class="st2" d="M156.6,61.3V49.9l2.6-1.8v13.2L156.6,61.3L156.6,61.3z"/>
	<path class="st2" d="M161.9,54.9c0-3.7,3.1-6.7,6.9-6.7s6.8,3,6.8,6.7c0,3.7-3.1,6.7-6.8,6.7S161.9,58.6,161.9,54.9z M172.9,54.9   c0-2.3-1.9-4.1-4.2-4.1c-2.3,0-4.2,1.8-4.2,4.1s1.9,4.1,4.2,4.1C171,59,172.9,57.1,172.9,54.9z"/>
	<path class="st2" d="M177.4,54.9c0-3.7,3.1-6.7,6.9-6.7c3.8,0,6.8,3,6.8,6.7c0,3.7-3.1,6.7-6.8,6.7   C180.5,61.5,177.4,58.6,177.4,54.9z M188.4,54.9c0-2.3-1.9-4.1-4.2-4.1c-2.3,0-4.2,1.8-4.2,4.1s1.9,4.1,4.2,4.1   C186.6,59,188.4,57.1,188.4,54.9z"/>
	<path class="st2" d="M193.8,61.3V49.9l2.6-1.8v13.2L193.8,61.3L193.8,61.3z"/>
	<path class="st2" d="M20.2,77.3c0-3.7,3.1-6.7,6.9-6.7c3.8,0,6.8,3,6.8,6.7c0,3.7-3.1,6.7-6.8,6.7C23.3,84,20.2,81,20.2,77.3z    M31.2,77.3c0-2.3-1.9-4.1-4.2-4.1s-4.2,1.8-4.2,4.1c0,2.3,1.9,4.1,4.2,4.1C29.4,81.4,31.2,79.6,31.2,77.3z"/>
	<path class="st2" d="M36.6,83.7V72.3l2.6-1.8v13.2L36.6,83.7L36.6,83.7z"/>
	<path class="st2" d="M42.7,83.7V72.3l2.6-1.8v13.2L42.7,83.7L42.7,83.7z"/>
	<path class="st2" d="M48,77.3c0-3.7,3.1-6.7,6.9-6.7c3.8,0,6.8,3,6.8,6.7c0,3.7-3.1,6.7-6.8,6.7C51.1,84,48,81,48,77.3z M59.1,77.3   c0-2.3-1.9-4.1-4.2-4.1s-4.2,1.8-4.2,4.1c0,2.3,1.9,4.1,4.2,4.1C57.2,81.4,59.1,79.6,59.1,77.3z"/>
	<path class="st2" d="M63.5,77.3c0-3.7,3.1-6.7,6.9-6.7s6.8,3,6.8,6.7c0,3.7-3.1,6.7-6.8,6.7S63.5,81,63.5,77.3z M74.6,77.3   c0-2.3-1.9-4.1-4.2-4.1c-2.3,0-4.2,1.8-4.2,4.1c0,2.3,1.9,4.1,4.2,4.1C72.7,81.4,74.6,79.6,74.6,77.3z"/>
	<path class="st2" d="M79,77.3c0-3.7,3.1-6.7,6.9-6.7c3.8,0,6.8,3,6.8,6.7c0,3.7-3.1,6.7-6.8,6.7C82.1,84,79,81,79,77.3z M90.1,77.3   c0-2.3-1.9-4.1-4.2-4.1s-4.2,1.8-4.2,4.1c0,2.3,1.9,4.1,4.2,4.1S90.1,79.6,90.1,77.3z"/>
	<path class="st2" d="M95.4,83.7V72.3l2.6-1.8v13.2L95.4,83.7L95.4,83.7z"/>
	<path class="st2" d="M100.7,77.3c0-3.7,3.1-6.7,6.9-6.7c3.8,0,6.8,3,6.8,6.7c0,3.7-3.1,6.7-6.8,6.7C103.8,84,100.7,81,100.7,77.3z    M111.8,77.3c0-2.3-1.9-4.1-4.2-4.1s-4.2,1.8-4.2,4.1c0,2.3,1.9,4.1,4.2,4.1S111.8,79.6,111.8,77.3z"/>
	<path class="st2" d="M121.7,77.3c0-3.7,3.1-6.7,6.9-6.7c3.8,0,6.8,3,6.8,6.7c0,3.7-3.1,6.7-6.8,6.7C124.8,84,121.7,81,121.7,77.3z    M132.8,77.3c0-2.3-1.9-4.1-4.2-4.1c-2.3,0-4.2,1.8-4.2,4.1c0,2.3,1.9,4.1,4.2,4.1C130.9,81.4,132.8,79.6,132.8,77.3z"/>
	<path class="st2" d="M138.1,83.7V72.3l2.6-1.8v13.2L138.1,83.7L138.1,83.7z"/>
	<path class="st2" d="M144.2,83.7V72.3l2.6-1.8v13.2L144.2,83.7L144.2,83.7z"/>
	<path class="st2" d="M149.5,77.3c0-3.7,3.1-6.7,6.9-6.7c3.8,0,6.8,3,6.8,6.7c0,3.7-3.1,6.7-6.8,6.7C152.6,84,149.5,81,149.5,77.3z    M160.6,77.3c0-2.3-1.9-4.1-4.2-4.1c-2.3,0-4.2,1.8-4.2,4.1c0,2.3,1.9,4.1,4.2,4.1C158.7,81.4,160.6,79.6,160.6,77.3z"/>
	<path class="st2" d="M165.1,77.3c0-3.7,3.1-6.7,6.9-6.7c3.8,0,6.8,3,6.8,6.7c0,3.7-3.1,6.7-6.8,6.7C168.1,84,165.1,81,165.1,77.3z    M176.1,77.3c0-2.3-1.9-4.1-4.2-4.1c-2.3,0-4.2,1.8-4.2,4.1c0,2.3,1.9,4.1,4.2,4.1C174.2,81.4,176.1,79.6,176.1,77.3z"/>
	<path class="st2" d="M181.4,83.7V72.3l2.6-1.8v13.2L181.4,83.7L181.4,83.7z"/>
	<path class="st2" d="M186.7,77.3c0-3.7,3.1-6.7,6.9-6.7s6.8,3,6.8,6.7c0,3.7-3.1,6.7-6.8,6.7S186.7,81,186.7,77.3z M197.8,77.3   c0-2.3-1.9-4.1-4.2-4.1s-4.2,1.8-4.2,4.1c0,2.3,1.9,4.1,4.2,4.1S197.8,79.6,197.8,77.3z"/>
	<path class="st2" d="M203.1,83.7V72.3l2.6-1.8v13.2L203.1,83.7L203.1,83.7z"/>
	<path class="st2" d="M10.8,99.8c0-3.7,3.1-6.7,6.9-6.7s6.8,3,6.8,6.7c0,3.7-3.1,6.7-6.8,6.7S10.8,103.5,10.8,99.8z M21.9,99.8   c0-2.3-1.9-4.1-4.2-4.1s-4.2,1.8-4.2,4.1c0,2.3,1.9,4.1,4.2,4.1C20,103.9,21.9,102.1,21.9,99.8z"/>
	<path class="st2" d="M27.2,106.2V94.8l2.6-1.8v13.2L27.2,106.2L27.2,106.2z"/>
	<path class="st2" d="M33.4,106.2V94.8L36,93v13.2L33.4,106.2L33.4,106.2z"/>
	<path class="st2" d="M39.5,106.2V94.8l2.6-1.8v13.2L39.5,106.2L39.5,106.2z"/>
	<path class="st2" d="M44.8,99.8c0-3.7,3.1-6.7,6.9-6.7c3.8,0,6.8,3,6.8,6.7c0,3.7-3.1,6.7-6.8,6.7C47.9,106.5,44.8,103.5,44.8,99.8   z M55.9,99.8c0-2.3-1.9-4.1-4.2-4.1c-2.3,0-4.2,1.8-4.2,4.1c0,2.3,1.9,4.1,4.2,4.1C54,103.9,55.9,102.1,55.9,99.8z"/>
	<path class="st2" d="M60.3,99.8c0-3.7,3.1-6.7,6.9-6.7s6.8,3,6.8,6.7c0,3.7-3,6.7-6.8,6.7C63.4,106.5,60.3,103.5,60.3,99.8z    M71.4,99.8c0-2.3-1.9-4.1-4.2-4.1c-2.3,0-4.2,1.8-4.2,4.1c0,2.3,1.9,4.1,4.2,4.1C69.5,103.9,71.4,102.1,71.4,99.8z"/>
	<path class="st2" d="M76.7,106.2V94.8l2.6-1.8v13.2L76.7,106.2L76.7,106.2z"/>
	<path class="st2" d="M82,99.8c0-3.7,3.1-6.7,6.9-6.7c3.8,0,6.8,3,6.8,6.7c0,3.7-3.1,6.7-6.8,6.7C85.1,106.5,82,103.5,82,99.8z    M93.1,99.8c0-2.3-1.9-4.1-4.2-4.1c-2.3,0-4.2,1.8-4.2,4.1c0,2.3,1.9,4.1,4.2,4.1C91.2,103.9,93.1,102.1,93.1,99.8z"/>
	<path class="st2" d="M103,99.8c0-3.7,3.1-6.7,6.9-6.7c3.8,0,6.8,3,6.8,6.7c0,3.7-3.1,6.7-6.8,6.7C106.1,106.5,103,103.5,103,99.8z    M114.1,99.8c0-2.3-1.9-4.1-4.2-4.1c-2.3,0-4.2,1.8-4.2,4.1c0,2.3,1.9,4.1,4.2,4.1C112.2,103.9,114.1,102.1,114.1,99.8z"/>
	<path class="st2" d="M118.5,99.8c0-3.7,3.1-6.7,6.9-6.7s6.8,3,6.8,6.7c0,3.7-3.1,6.7-6.8,6.7S118.5,103.5,118.5,99.8z M129.6,99.8   c0-2.3-1.9-4.1-4.2-4.1c-2.3,0-4.2,1.8-4.2,4.1c0,2.3,1.9,4.1,4.2,4.1C127.7,103.9,129.6,102.1,129.6,99.8z"/>
	<path class="st2" d="M134.9,106.2V94.8l2.6-1.8v13.2L134.9,106.2L134.9,106.2z"/>
	<path class="st2" d="M140.2,99.8c0-3.7,3.1-6.7,6.9-6.7s6.8,3,6.8,6.7c0,3.7-3.1,6.7-6.8,6.7S140.2,103.5,140.2,99.8z M151.3,99.8   c0-2.3-1.9-4.1-4.2-4.1c-2.3,0-4.2,1.8-4.2,4.1c0,2.3,1.9,4.1,4.2,4.1C149.4,103.9,151.3,102.1,151.3,99.8z"/>
	<path class="st2" d="M155.7,99.8c0-3.7,3.1-6.7,6.9-6.7c3.8,0,6.8,3,6.8,6.7c0,3.7-3.1,6.7-6.8,6.7   C158.8,106.5,155.7,103.5,155.7,99.8z M166.8,99.8c0-2.3-1.9-4.1-4.2-4.1c-2.3,0-4.2,1.8-4.2,4.1c0,2.3,1.9,4.1,4.2,4.1   C164.9,103.9,166.8,102.1,166.8,99.8z"/>
	<path class="st2" d="M171.2,99.8c0-3.7,3.1-6.7,6.9-6.7s6.8,3,6.8,6.7c0,3.7-3.1,6.7-6.8,6.7S171.2,103.5,171.2,99.8z M182.3,99.8   c0-2.3-1.9-4.1-4.2-4.1c-2.3,0-4.2,1.8-4.2,4.1c0,2.3,1.9,4.1,4.2,4.1C180.4,103.9,182.3,102.1,182.3,99.8z"/>
	<path class="st2" d="M186.7,99.8c0-3.7,3.1-6.7,6.9-6.7s6.8,3,6.8,6.7c0,3.7-3.1,6.7-6.8,6.7S186.7,103.5,186.7,99.8z M197.8,99.8   c0-2.3-1.9-4.1-4.2-4.1s-4.2,1.8-4.2,4.1c0,2.3,1.9,4.1,4.2,4.1S197.8,102.1,197.8,99.8z"/>
	<path class="st2" d="M202.2,99.8c0-3.7,3.1-6.7,6.9-6.7c3.8,0,6.8,3,6.8,6.7c0,3.7-3.1,6.7-6.8,6.7   C205.3,106.5,202.2,103.5,202.2,99.8z M213.3,99.8c0-2.3-1.9-4.1-4.2-4.1c-2.3,0-4.2,1.8-4.2,4.1c0,2.3,1.9,4.1,4.2,4.1   C211.4,103.9,213.3,102.1,213.3,99.8z"/>
	<path class="st2" d="M29.5,122.3c0-3.7,3.1-6.7,6.9-6.7c3.8,0,6.8,3,6.8,6.7s-3.1,6.7-6.8,6.7C32.6,128.9,29.5,125.9,29.5,122.3z    M40.6,122.3c0-2.3-1.9-4.1-4.2-4.1c-2.3,0-4.2,1.8-4.2,4.1s1.9,4.1,4.2,4.1S40.6,124.5,40.6,122.3z"/>
	<path class="st2" d="M45.9,128.7v-11.4l2.6-1.8v13.2L45.9,128.7L45.9,128.7z"/>
	<path class="st2" d="M52.1,128.7v-11.4l2.6-1.8v13.2L52.1,128.7L52.1,128.7z"/>
	<path class="st2" d="M58.2,128.7v-11.4l2.6-1.8v13.2L58.2,128.7L58.2,128.7z"/>
	<path class="st2" d="M63.5,122.3c0-3.7,3.1-6.7,6.9-6.7s6.8,3,6.8,6.7s-3.1,6.7-6.8,6.7C66.6,128.9,63.5,125.9,63.5,122.3z    M74.6,122.3c0-2.3-1.9-4.1-4.2-4.1c-2.3,0-4.2,1.8-4.2,4.1s1.9,4.1,4.2,4.1C72.7,126.4,74.6,124.5,74.6,122.3z"/>
	<path class="st2" d="M79,122.3c0-3.7,3.1-6.7,6.9-6.7c3.8,0,6.8,3,6.8,6.7s-3.1,6.7-6.8,6.7C82.1,128.9,79,125.9,79,122.3z    M90.1,122.3c0-2.3-1.9-4.1-4.2-4.1s-4.2,1.8-4.2,4.1s1.9,4.1,4.2,4.1S90.1,124.5,90.1,122.3z"/>
	<path class="st2" d="M95.4,128.7v-11.4l2.6-1.8v13.2L95.4,128.7L95.4,128.7z"/>
	<path class="st2" d="M101.6,128.7v-11.4l2.6-1.8v13.2L101.6,128.7L101.6,128.7z"/>
	<path class="st2" d="M112.4,122.3c0-3.7,3.1-6.7,6.9-6.7c3.8,0,6.8,3,6.8,6.7s-3.1,6.7-6.8,6.7   C115.4,128.9,112.4,125.9,112.4,122.3z M123.4,122.3c0-2.3-1.9-4.1-4.2-4.1c-2.3,0-4.2,1.8-4.2,4.1s1.9,4.1,4.2,4.1   C121.5,126.4,123.4,124.5,123.4,122.3z"/>
	<path class="st2" d="M128.7,128.7v-11.4l2.6-1.8v13.2L128.7,128.7L128.7,128.7z"/>
	<path class="st2" d="M134.9,128.7v-11.4l2.6-1.8v13.2L134.9,128.7L134.9,128.7z"/>
	<path class="st2" d="M140.2,122.3c0-3.7,3.1-6.7,6.9-6.7s6.8,3,6.8,6.7s-3.1,6.7-6.8,6.7S140.2,125.9,140.2,122.3z M151.3,122.3   c0-2.3-1.9-4.1-4.2-4.1c-2.3,0-4.2,1.8-4.2,4.1s1.9,4.1,4.2,4.1C149.4,126.4,151.3,124.5,151.3,122.3z"/>
	<path class="st2" d="M155.7,122.3c0-3.7,3.1-6.7,6.9-6.7c3.8,0,6.8,3,6.8,6.7s-3.1,6.7-6.8,6.7   C158.8,128.9,155.7,125.9,155.7,122.3z M166.8,122.3c0-2.3-1.9-4.1-4.2-4.1c-2.3,0-4.2,1.8-4.2,4.1s1.9,4.1,4.2,4.1   C164.9,126.4,166.8,124.5,166.8,122.3z"/>
	<path class="st2" d="M172.1,128.7v-11.4l2.6-1.8v13.2L172.1,128.7L172.1,128.7z"/>
	<path class="st2" d="M177.4,122.3c0-3.7,3.1-6.7,6.9-6.7c3.8,0,6.8,3,6.8,6.7s-3.1,6.7-6.8,6.7   C180.5,128.9,177.4,125.9,177.4,122.3z M188.4,122.3c0-2.3-1.9-4.1-4.2-4.1c-2.3,0-4.2,1.8-4.2,4.1s1.9,4.1,4.2,4.1   C186.6,126.4,188.4,124.5,188.4,122.3z"/>
	<path class="st2" d="M193.8,128.7v-11.4l2.6-1.8v13.2L193.8,128.7L193.8,128.7z"/>
	<path class="st2" d="M29.5,144.7c0-3.7,3.1-6.7,6.9-6.7c3.8,0,6.8,3,6.8,6.7c0,3.7-3.1,6.7-6.8,6.7   C32.6,151.4,29.5,148.4,29.5,144.7z M40.6,144.7c0-2.3-1.9-4.1-4.2-4.1c-2.3,0-4.2,1.8-4.2,4.1s1.9,4.1,4.2,4.1   S40.6,147,40.6,144.7z"/>
	<path class="st2" d="M45.9,151.1v-11.4l2.6-1.8v13.2L45.9,151.1L45.9,151.1z"/>
	<path class="st2" d="M52.1,151.1v-11.4l2.6-1.8v13.2L52.1,151.1L52.1,151.1z"/>
	<path class="st2" d="M57.4,144.7c0-3.7,3.1-6.7,6.9-6.7s6.8,3,6.8,6.7c0,3.7-3.1,6.7-6.8,6.7S57.4,148.4,57.4,144.7z M68.4,144.7   c0-2.3-1.9-4.1-4.2-4.1c-2.3,0-4.2,1.8-4.2,4.1s1.9,4.1,4.2,4.1C66.5,148.8,68.4,147,68.4,144.7z"/>
	<path class="st2" d="M72.9,144.7c0-3.7,3.1-6.7,6.9-6.7s6.8,3,6.8,6.7c0,3.7-3.1,6.7-6.8,6.7C76,151.4,72.9,148.4,72.9,144.7z    M83.9,144.7c0-2.3-1.9-4.1-4.2-4.1s-4.2,1.8-4.2,4.1s1.9,4.1,4.2,4.1C82.1,148.8,83.9,147,83.9,144.7z"/>
	<path class="st2" d="M88.4,144.7c0-3.7,3.1-6.7,6.9-6.7s6.8,3,6.8,6.7c0,3.7-3.1,6.7-6.8,6.7S88.4,148.4,88.4,144.7z M99.5,144.7   c0-2.3-1.9-4.1-4.2-4.1s-4.2,1.8-4.2,4.1s1.9,4.1,4.2,4.1S99.5,147,99.5,144.7z"/>
	<path class="st2" d="M104.8,151.1v-11.4l2.6-1.8v13.2L104.8,151.1L104.8,151.1z"/>
	<path class="st2" d="M110.9,151.1v-11.4l2.6-1.8v13.2L110.9,151.1L110.9,151.1z"/>
	<path class="st2" d="M121.7,144.7c0-3.7,3.1-6.7,6.9-6.7c3.8,0,6.8,3,6.8,6.7c0,3.7-3.1,6.7-6.8,6.7   C124.8,151.4,121.7,148.4,121.7,144.7z M132.8,144.7c0-2.3-1.9-4.1-4.2-4.1c-2.3,0-4.2,1.8-4.2,4.1s1.9,4.1,4.2,4.1   C130.9,148.8,132.8,147,132.8,144.7z"/>
	<path class="st2" d="M138.1,151.1v-11.4l2.6-1.8v13.2L138.1,151.1L138.1,151.1z"/>
	<path class="st2" d="M144.2,151.1v-11.4l2.6-1.8v13.2L144.2,151.1L144.2,151.1z"/>
	<path class="st2" d="M150.4,151.1v-11.4l2.6-1.8v13.2L150.4,151.1L150.4,151.1z"/>
	<path class="st2" d="M155.7,144.7c0-3.7,3.1-6.7,6.9-6.7c3.8,0,6.8,3,6.8,6.7c0,3.7-3.1,6.7-6.8,6.7   C158.8,151.4,155.7,148.4,155.7,144.7z M166.8,144.7c0-2.3-1.9-4.1-4.2-4.1c-2.3,0-4.2,1.8-4.2,4.1s1.9,4.1,4.2,4.1   C164.9,148.8,166.8,147,166.8,144.7z"/>
	<path class="st2" d="M172.1,151.1v-11.4l2.6-1.8v13.2L172.1,151.1L172.1,151.1z"/>
	<path class="st2" d="M177.4,144.7c0-3.7,3.1-6.7,6.9-6.7c3.8,0,6.8,3,6.8,6.7c0,3.7-3.1,6.7-6.8,6.7   C180.5,151.4,177.4,148.4,177.4,144.7z M188.4,144.7c0-2.3-1.9-4.1-4.2-4.1c-2.3,0-4.2,1.8-4.2,4.1s1.9,4.1,4.2,4.1   C186.6,148.8,188.4,147,188.4,144.7z"/>
	<path class="st2" d="M193.8,151.1v-11.4l2.6-1.8v13.2L193.8,151.1L193.8,151.1z"/>
	<path class="st2" d="M24.9,167.2c0-3.7,3.1-6.7,6.9-6.7s6.8,3,6.8,6.7s-3.1,6.7-6.8,6.7C27.9,173.8,24.9,170.9,24.9,167.2z    M35.9,167.2c0-2.3-1.9-4.1-4.2-4.1s-4.2,1.8-4.2,4.1s1.9,4.1,4.2,4.1C34,171.3,35.9,169.5,35.9,167.2z"/>
	<path class="st2" d="M41.2,173.6v-11.4l2.6-1.8v13.2L41.2,173.6L41.2,173.6z"/>
	<path class="st2" d="M47.4,173.6v-11.4l2.6-1.8v13.2L47.4,173.6L47.4,173.6z"/>
	<path class="st2" d="M53.6,173.6v-11.4l2.6-1.8v13.2L53.6,173.6L53.6,173.6z"/>
	<path class="st2" d="M58.9,167.2c0-3.7,3.1-6.7,6.9-6.7c3.8,0,6.8,3,6.8,6.7s-3.1,6.7-6.8,6.7C61.9,173.8,58.9,170.9,58.9,167.2z    M69.9,167.2c0-2.3-1.9-4.1-4.2-4.1c-2.3,0-4.2,1.8-4.2,4.1s1.9,4.1,4.2,4.1C68,171.3,69.9,169.5,69.9,167.2z"/>
	<path class="st2" d="M74.4,167.2c0-3.7,3.1-6.7,6.9-6.7c3.8,0,6.8,3,6.8,6.7s-3.1,6.7-6.8,6.7C77.4,173.8,74.4,170.9,74.4,167.2z    M85.4,167.2c0-2.3-1.9-4.1-4.2-4.1s-4.2,1.8-4.2,4.1s1.9,4.1,4.2,4.1C83.5,171.3,85.4,169.5,85.4,167.2z"/>
	<path class="st2" d="M90.7,173.6v-11.4l2.6-1.8v13.2L90.7,173.6L90.7,173.6z"/>
	<path class="st2" d="M96,167.2c0-3.7,3.1-6.7,6.9-6.7c3.8,0,6.8,3,6.8,6.7s-3.1,6.7-6.8,6.7C99.1,173.8,96,170.9,96,167.2z    M107.1,167.2c0-2.3-1.9-4.1-4.2-4.1s-4.2,1.8-4.2,4.1s1.9,4.1,4.2,4.1S107.1,169.5,107.1,167.2z"/>
	<path class="st2" d="M117,167.2c0-3.7,3.1-6.7,6.9-6.7c3.8,0,6.8,3,6.8,6.7s-3.1,6.7-6.8,6.7C120.1,173.8,117,170.9,117,167.2z    M128.1,167.2c0-2.3-1.9-4.1-4.2-4.1c-2.3,0-4.2,1.8-4.2,4.1s1.9,4.1,4.2,4.1C126.2,171.3,128.1,169.5,128.1,167.2z"/>
	<path class="st2" d="M133.4,173.6v-11.4l2.6-1.8v13.2L133.4,173.6L133.4,173.6z"/>
	<path class="st2" d="M139.6,173.6v-11.4l2.6-1.8v13.2L139.6,173.6L139.6,173.6z"/>
	<path class="st2" d="M144.9,167.2c0-3.7,3.1-6.7,6.9-6.7c3.8,0,6.8,3,6.8,6.7s-3.1,6.7-6.8,6.7   C147.9,173.8,144.9,170.9,144.9,167.2z M155.9,167.2c0-2.3-1.9-4.1-4.2-4.1c-2.3,0-4.2,1.8-4.2,4.1s1.9,4.1,4.2,4.1   S155.9,169.5,155.9,167.2z"/>
	<path class="st2" d="M161.3,173.6v-11.4l2.6-1.8v13.2L161.3,173.6L161.3,173.6z"/>
	<path class="st2" d="M166.5,167.2c0-3.7,3.1-6.7,6.9-6.7c3.8,0,6.8,3,6.8,6.7s-3.1,6.7-6.8,6.7   C169.6,173.8,166.5,170.9,166.5,167.2z M177.6,167.2c0-2.3-1.9-4.1-4.2-4.1c-2.3,0-4.2,1.8-4.2,4.1s1.9,4.1,4.2,4.1   C175.7,171.3,177.6,169.5,177.6,167.2z"/>
	<path class="st2" d="M182.1,167.2c0-3.7,3.1-6.7,6.9-6.7c3.8,0,6.8,3,6.8,6.7s-3.1,6.7-6.8,6.7   C185.1,173.8,182.1,170.9,182.1,167.2z M193.1,167.2c0-2.3-1.9-4.1-4.2-4.1c-2.3,0-4.2,1.8-4.2,4.1s1.9,4.1,4.2,4.1   C191.2,171.3,193.1,169.5,193.1,167.2z"/>
	<path class="st2" d="M198.4,173.6v-11.4l2.6-1.8v13.2L198.4,173.6L198.4,173.6z"/>
	<path class="st2" d="M29.5,189.6c0-3.7,3.1-6.7,6.9-6.7c3.8,0,6.8,3,6.8,6.7s-3.1,6.7-6.8,6.7C32.6,196.3,29.5,193.3,29.5,189.6z    M40.6,189.6c0-2.3-1.9-4.1-4.2-4.1c-2.3,0-4.2,1.8-4.2,4.1s1.9,4.1,4.2,4.1S40.6,191.9,40.6,189.6z"/>
	<path class="st2" d="M45.9,196v-11.4l2.6-1.8V196L45.9,196L45.9,196z"/>
	<path class="st2" d="M52.1,196v-11.4l2.6-1.8V196L52.1,196L52.1,196z"/>
	<path class="st2" d="M58.2,196v-11.4l2.6-1.8V196L58.2,196L58.2,196z"/>
	<path class="st2" d="M63.5,189.6c0-3.7,3.1-6.7,6.9-6.7s6.8,3,6.8,6.7s-3.1,6.7-6.8,6.7C66.6,196.3,63.5,193.3,63.5,189.6z    M74.6,189.6c0-2.3-1.9-4.1-4.2-4.1c-2.3,0-4.2,1.8-4.2,4.1s1.9,4.1,4.2,4.1C72.7,193.7,74.6,191.9,74.6,189.6z"/>
	<path class="st2" d="M79.9,196v-11.4l2.6-1.8V196L79.9,196L79.9,196z"/>
	<path class="st2" d="M85.2,189.6c0-3.7,3.1-6.7,6.9-6.7c3.8,0,6.8,3,6.8,6.7s-3.1,6.7-6.8,6.7C88.3,196.3,85.2,193.3,85.2,189.6z    M96.3,189.6c0-2.3-1.9-4.1-4.2-4.1s-4.2,1.8-4.2,4.1s1.9,4.1,4.2,4.1S96.3,191.9,96.3,189.6z"/>
	<path class="st2" d="M100.7,189.6c0-3.7,3.1-6.7,6.9-6.7c3.8,0,6.8,3,6.8,6.7s-3.1,6.7-6.8,6.7   C103.8,196.3,100.7,193.3,100.7,189.6z M111.8,189.6c0-2.3-1.9-4.1-4.2-4.1s-4.2,1.8-4.2,4.1s1.9,4.1,4.2,4.1   S111.8,191.9,111.8,189.6z"/>
	<path class="st2" d="M121.7,189.6c0-3.7,3.1-6.7,6.9-6.7c3.8,0,6.8,3,6.8,6.7s-3.1,6.7-6.8,6.7   C124.8,196.3,121.7,193.3,121.7,189.6z M132.8,189.6c0-2.3-1.9-4.1-4.2-4.1c-2.3,0-4.2,1.8-4.2,4.1s1.9,4.1,4.2,4.1   C130.9,193.7,132.8,191.9,132.8,189.6z"/>
	<path class="st2" d="M138.1,196v-11.4l2.6-1.8V196L138.1,196L138.1,196z"/>
	<path class="st2" d="M144.2,196v-11.4l2.6-1.8V196L144.2,196L144.2,196z"/>
	<path class="st2" d="M150.4,196v-11.4l2.6-1.8V196L150.4,196L150.4,196z"/>
	<path class="st2" d="M156.6,196v-11.4l2.6-1.8V196L156.6,196L156.6,196z"/>
	<path class="st2" d="M161.9,189.6c0-3.7,3.1-6.7,6.9-6.7s6.8,3,6.8,6.7s-3.1,6.7-6.8,6.7S161.9,193.3,161.9,189.6z M172.9,189.6   c0-2.3-1.9-4.1-4.2-4.1c-2.3,0-4.2,1.8-4.2,4.1s1.9,4.1,4.2,4.1C171,193.7,172.9,191.9,172.9,189.6z"/>
	<path class="st2" d="M177.4,189.6c0-3.7,3.1-6.7,6.9-6.7c3.8,0,6.8,3,6.8,6.7s-3.1,6.7-6.8,6.7   C180.5,196.3,177.4,193.3,177.4,189.6z M188.4,189.6c0-2.3-1.9-4.1-4.2-4.1c-2.3,0-4.2,1.8-4.2,4.1s1.9,4.1,4.2,4.1   C186.6,193.7,188.4,191.9,188.4,189.6z"/>
	<path class="st2" d="M193.8,196v-11.4l2.6-1.8V196L193.8,196L193.8,196z"/>
	<path class="st3" d="M120,40.8c-46.3,0-84,36.7-84,81.9s37.7,81.9,84,81.9s84-36.7,84-81.9S166.3,40.8,120,40.8z M120,198.8   c-43,0-78-34.1-78-76s35-76,78-76s78,34.1,78,76S163,198.8,120,198.8z"/>
	<path class="st4" d="M120,5.7C53.7,5.7,0,58.1,0,122.7s53.7,117,120,117s120-52.4,120-117S186.3,5.7,120,5.7z M120,204.6   c-46.3,0-84-36.7-84-81.9s37.7-81.9,84-81.9s84,36.7,84,81.9S166.3,204.6,120,204.6z"/>
	<text class="st5 st6" transform="matrix(1.0257 0 0 1 9.765625e-04 6.0234)"> </text>
	<text class="st5 st6" transform="matrix(1.0257 0 0 1 9.765625e-04 6.0234)"> </text>
	<text class="st5 st6" transform="matrix(1.0257 0 0 1 9.765625e-04 6.0234)"> </text>
	<text class="st5 st6" transform="matrix(1.0257 0 0 1 9.765625e-04 6.0234)"> </text>
	<text class="st5 st6" transform="matrix(1.0257 0 0 1 9.765625e-04 6.0234)"> </text>
	<text class="st5 st6" transform="matrix(1.0257 0 0 1 9.765625e-04 6.0234)"> </text>
	<path class="st7" d="M44.4,72.9L29.8,62l6.8-8.7l2.4,2.4l-3.6,4.6l3.5,2.6l3.1-4l2.8,2l-3.1,4l5.6,4.1L44.4,72.9z"/>
	<path class="st7" d="M51.8,41.5c2.2,0.2,4.4,1.4,6.4,3.6c1.4,1.4,2.3,2.9,2.8,4.4c0.5,1.5,0.5,2.9,0.1,4.3   c-0.4,1.4-1.3,2.7-2.6,3.8c-2,1.8-4,2.5-6.3,2.3c-2.2-0.2-4.4-1.5-6.5-3.7c-1.3-1.4-2.3-2.9-2.8-4.3c-0.5-1.5-0.5-2.9-0.1-4.3   c0.4-1.4,1.2-2.7,2.5-3.8C47.5,42.1,49.6,41.3,51.8,41.5z M47,49c0.2,1,1.1,2.3,2.6,3.9c1.5,1.6,2.7,2.5,3.8,2.8s2,0.1,2.8-0.6   c0.9-0.8,1.2-1.7,0.9-2.7c-0.3-1-1.1-2.3-2.6-3.9C53,47,51.8,46,50.7,45.7s-2-0.1-2.8,0.6C47.1,47.1,46.8,48,47,49z"/>
	<path class="st7" d="M76.4,37.5c0.7,1.1,1,2.1,1,3.3c0,1.1-0.3,2.2-0.9,3.2c-0.7,1-1.7,2-3,2.8c-2.1,1.2-4,1.6-5.6,1.3   c-1.7-0.4-3-1.4-4.1-3.1l-6.3-10.2l4.2-2.5l6.2,10.1c0.6,0.9,1.2,1.5,1.8,1.7c0.6,0.2,1.3,0.1,2-0.3c0.8-0.4,1.2-1,1.2-1.6   s-0.2-1.4-0.8-2.3L66,29.8l4.2-2.5L76.4,37.5z"/>
	<path class="st7" d="M96.6,36.5l-5.8,2l-9-11.2l0.3,0.5c0.6,1.1,1.1,2.1,1.5,3c0.4,0.9,0.9,2,1.3,3.3l2.1,5.7l-4.1,1.4l-6.1-16.9   l5.7-1.9l9.1,11.2c-0.6-1.1-1.2-2.2-1.6-3.1c-0.5-0.9-0.9-2-1.4-3.3L86.4,21l4.1-1.4L96.6,36.5z"/>
	<path class="st7" d="M110.6,18.1c1.9,1,3.1,3.2,3.6,6.6c0.8,5.9-1.8,9.3-7.9,10.1l-5.8,0.8L98,17.9l5.4-0.7   C106.3,16.7,108.7,17.1,110.6,18.1z M103.3,20.6l1.5,11l1.3-0.2c1.3-0.2,2.3-0.7,2.8-1.6c0.5-0.9,0.6-2.4,0.3-4.5   c-0.2-1.4-0.5-2.5-0.9-3.3c-0.4-0.7-0.9-1.2-1.5-1.5c-0.6-0.2-1.3-0.3-2.2-0.2L103.3,20.6z"/>
	<path class="st7" d="M128.1,34.1l-0.6-3.7l-4.8-0.3l-1,3.6l-5.1-0.3l6.4-17.6l5.8,0.3l4.4,18.1L128.1,34.1z M123.6,26.8L127,27   l-1.2-7.5L123.6,26.8z"/>
	<path class="st7" d="M150.9,20l-1.3,3.4l-4.2-0.9l-3.2,13.9l-4.8-1l3.2-13.9l-4.5-1l0.8-3.5L150.9,20z"/>
	<path class="st7" d="M160.4,23.4L154,40.2l-4.6-1.7l6.4-16.8L160.4,23.4z"/>
	<path class="st7" d="M178.1,34.4c0.5,2.1-0.1,4.5-1.6,7.1c-1,1.7-2.1,3-3.4,3.9c-1.3,0.9-2.7,1.4-4.2,1.5c-1.5,0.1-3-0.3-4.5-1.2   c-2.3-1.3-3.7-3-4.1-5.1c-0.5-2.1,0.1-4.5,1.6-7.1c1-1.7,2.1-3,3.4-3.9c1.3-0.9,2.7-1.4,4.1-1.4s3,0.3,4.5,1.2   C176.2,30.5,177.6,32.2,178.1,34.4z M169.3,32.2c-0.9,0.5-1.9,1.8-3,3.6c-1.1,1.9-1.6,3.3-1.6,4.4s0.5,1.9,1.5,2.4   c1,0.6,2,0.6,2.9,0c0.9-0.6,1.9-1.8,3-3.6c1.1-1.9,1.6-3.3,1.6-4.4c0-1.1-0.5-1.9-1.5-2.4C171.2,31.7,170.2,31.7,169.3,32.2z"/>
	<path class="st7" d="M185.5,60.5l-4.6-3.9l5.6-13.1l-0.3,0.5c-0.7,1-1.3,1.9-1.9,2.8c-0.6,0.8-1.4,1.8-2.3,2.8l-4.1,4.6l-3.3-2.8   l12.1-13.5l4.5,3.9l-5.5,13.2c0.7-1.1,1.4-2.1,2-2.9c0.6-0.8,1.4-1.8,2.3-2.8l4.4-4.9l3.3,2.8L185.5,60.5z"/>
	<path class="st7" d="M208.7,60.2c0.3,1.1,0.4,2.2,0.3,3.3l-3.4-0.1c0-1.6-0.4-2.9-1.3-4c-0.4-0.6-0.9-0.9-1.3-1   c-0.5-0.1-0.9,0-1.3,0.3c-0.3,0.2-0.5,0.5-0.5,0.7c-0.1,0.3,0,0.7,0.1,1.1c0.1,0.5,0.3,1.2,0.7,2.1c0.7,1.8,0.9,3.3,0.8,4.5   c-0.2,1.2-0.9,2.3-2.2,3.3c-0.9,0.7-1.9,1.1-3,1.2c-1.1,0.1-2.1-0.2-3.2-0.8c-1.1-0.6-2.1-1.5-3-2.6c-1.8-2.2-2.6-4.6-2.3-7.1   l3.6,0.3c0,1.8,0.4,3.4,1.4,4.6c0.5,0.6,1,1,1.6,1.2c0.6,0.1,1.1,0,1.6-0.3c0.3-0.3,0.6-0.5,0.7-0.8s0.1-0.7,0-1.2   c-0.1-0.5-0.3-1.1-0.6-1.9c-0.8-2-1-3.6-0.8-4.8c0.2-1.2,0.9-2.2,1.9-3c0.9-0.7,1.8-1,2.8-1c1,0,2,0.2,3,0.7c1,0.5,1.9,1.3,2.7,2.3   C207.8,58.1,208.4,59.1,208.7,60.2z"/>
	<ellipse class="st0" cx="120" cy="122.7" rx="114" ry="111.1"/>
	<path class="st7" d="M76.6,223l0.8-3.7l-4.4-2l-2.3,3l-4.6-2.1l12.6-14.1l5.3,2.4l-2.7,18.5L76.6,223z M75.2,214.6l3,1.4l1.7-7.4   L75.2,214.6z"/>
	<path class="st7" d="M95.4,210.4l-3.8,13.7l6.8,1.8l-1.5,3.4l-11-2.9l4.7-17.3L95.4,210.4z"/>
	<path class="st7" d="M117.4,225.7c-0.1,1.2-0.5,2.3-1.1,3.2c-0.6,0.9-1.5,1.6-2.7,2.1c-1.2,0.5-2.5,0.6-4.1,0.5   c-2.4-0.2-4.2-1-5.3-2.2c-1.1-1.3-1.6-2.9-1.4-4.9l1.1-11.8l4.9,0.4l-1.1,11.7c-0.1,1.1,0,1.9,0.4,2.4c0.3,0.5,1,0.8,1.8,0.9   c0.9,0.1,1.5-0.1,2-0.6c0.4-0.5,0.7-1.2,0.8-2.3l1.1-11.7l4.9,0.5L117.4,225.7z"/>
	<path class="st7" d="M142.3,229.8l-4.8,0.5l-1-6.6l-0.2-1.1c-0.2-1-0.3-1.8-0.3-2.3c-0.1-1.3-0.2-2.6-0.3-3.9l-1.1,12.3l-4.6,0.5   l-4-11.8c0.4,2,0.7,3.7,0.8,5.2c0.1,0.9,0.2,1.5,0.2,2l0.6,6.6l-4.8,0.5l-0.7-17.9l6-0.7l3.8,11.5l0.8-12l6.1-0.7L142.3,229.8z"/>
	<path class="st7" d="M162.3,223.6l-5.8,1.9l-8.8-11.3l0.3,0.5c0.6,1.1,1,2.1,1.5,3c0.4,1,0.9,2.1,1.3,3.3l2,5.7l-4.1,1.3l-5.8-17   l5.7-1.9l9,11.3c-0.6-1.2-1.2-2.2-1.6-3.1c-0.4-0.9-0.9-2-1.3-3.3l-2.1-6.1l4.1-1.3L162.3,223.6z"/>
	<path class="st7" d="M164.2,202.8l8.3,16l-4.4,2.2l-8.3-15.9L164.2,202.8z"/>
	<g>
		<defs>
			<path d="M125.8,105.9v26.6h11.8L125.8,105.9z M103,106.7l-4.5,25.9h8.8L103,106.7z M123.8,134.3h-8.2l2.4,13.1h2.3     c3.4,0,3.6-2.3,3.6-6.9L123.8,134.3z M165.5,134.2h-10.6c1.2,8.9,4.9,14,9.1,14c2.6,0,4.5-2,4.5-5.2     C168.4,140.6,167.4,137.6,165.5,134.2z M161.5,96.4c2.2,0,4.5,1.5,6.2,3.8l1.6-3.1h1.1v16.2h-1.1c-0.8-10-4-15.7-7.8-15.7     c-2.6,0-4.2,2-4.2,5.2c0,4.4,3.8,8.4,8.1,14.8c4.6,6.8,7.7,12.3,7.7,18.9c0,8.2-3.6,13.2-8.8,13.2c-3,0-5.3-1.3-7.7-4.1l-1.9,3.7     h-1.6v-15.1h-6.9v14.5h-1.5l-6.2-14.5h-12.6v5.4c0,5.2,2,7.5,6,7.7v1.4h-26v-1.4h4.1l-2.2-13.1h-9.6l-1.3,7.5     c0,0.6-0.1,1.4-0.1,2.4c0,2.3,0.9,3.1,4,3.2v1.4H89v-1.4c4.3-0.6,4.1-2.8,5-7.2l8.7-43.1h6.2l6.3,35.4h8.6v-34h-3.1v-1.4h10.4     l12.7,31.3v-23.1c0-4.6-1.4-6.7-4.8-6.7v-1.5h11.2v1.5c-3.7-0.1-4,1.5-4,5.9v28h6.9v-2.8h1.6c0,1.4,0.1,1.7,0.1,2.8h9.7     c-0.9-1.4-1.9-3.2-3.1-4.9c-4.1-6.2-7.6-11.7-7.6-19.5C153.6,100.6,157.1,96.4,161.5,96.4z M75.4,96.4c2.2,0,4.5,1.5,6.2,3.8     l1.6-3.1h1.2v16.2h-1.2c-0.8-10-4-15.7-7.8-15.7c-2.6,0-4.2,2-4.2,5.2c0,4.4,3.8,8.4,8.1,14.8c4.6,6.8,7.6,12.3,7.7,18.9     c0,8.2-3.6,13.2-8.8,13.2c-3,0-5.3-1.3-7.7-4.1l-1.9,3.7H67v-19.6h1.5c0.4,12,4.7,18.2,9.4,18.2c2.6,0,4.5-1.8,4.5-4.9     c0-4-2.6-9-7.1-15.6c-4.1-6.1-7.6-11.5-7.6-19.4C67.5,100.6,71,96.4,75.4,96.4z" id="SVGID_1_"/>
		</defs>
		<clipPath id="SVGID_2_">
			<use ns1:href="#SVGID_1_" style="overflow:visible;"/>
		</clipPath>
		<g class="st8">
			<defs>
				<rect height="844.8" id="SVGID_3_" width="1542.1" x="-116.3" y="-605.5"/>
			</defs>
			<clipPath id="SVGID_4_">
				<use ns1:href="#SVGID_3_" style="overflow:visible;"/>
			</clipPath>
			<rect class="st9" height="60.8" width="113.9" x="63.1" y="92.6"/>
		</g>
	</g>
	<path class="st10" d="M19.8,138.4l2.4,3.2c0.1,0.2,0.4,0.3,0.6,0.3l4.1-0.1c0.6,0,1,0.7,0.6,1.2l-2.4,3.3c-0.1,0.2-0.2,0.4-0.1,0.7   l1.4,3.8c0.2,0.6-0.3,1.1-0.9,0.9l-3.9-1.2c-0.2-0.1-0.5,0-0.7,0.1l-3.3,2.5c-0.5,0.4-1.2,0-1.2-0.6l0-4c0-0.2-0.1-0.5-0.3-0.6   l-3.4-2.3c-0.5-0.3-0.4-1.1,0.2-1.3l3.9-1.3c0.2-0.1,0.4-0.3,0.5-0.5l1.2-3.9C18.6,138,19.4,137.9,19.8,138.4z"/>
	<path class="st10" d="M18.1,130.2c-1.3,0-2.3-1-2.4-2.2c-1-17.6,3-36,11.3-51.6c0.6-1.1,2.1-1.6,3.2-1c1.2,0.6,1.6,2,1,3.2   c-7.9,14.9-11.7,32.4-10.8,49.2c0.1,1.3-0.9,2.4-2.3,2.5C18.2,130.2,18.2,130.2,18.1,130.2z"/>
	<path class="st10" d="M60.4,205.7c-0.5,0-1-0.1-1.4-0.4c-15.4-10.9-27.5-25.6-35-42.5c-0.5-1.2,0-2.6,1.3-3.1   c1.2-0.5,2.6,0,3.1,1.2c7.1,16.2,18.7,30.2,33.4,40.6c1.1,0.8,1.3,2.2,0.5,3.3C61.9,205.4,61.2,205.7,60.4,205.7z"/>
	<path class="st10" d="M219.1,138.4l-2.4,3.2c-0.1,0.2-0.4,0.3-0.6,0.3l-4.1-0.1c-0.6,0-1,0.7-0.6,1.2l2.4,3.3   c0.1,0.2,0.2,0.5,0.1,0.7l-1.4,3.8c-0.2,0.6,0.3,1.1,0.9,0.9l3.9-1.2c0.2-0.1,0.5,0,0.7,0.1l3.3,2.5c0.5,0.4,1.2,0,1.2-0.6l0-4   c0-0.2,0.1-0.5,0.3-0.6l3.4-2.3c0.5-0.3,0.4-1.1-0.2-1.3l-3.9-1.3c-0.2-0.1-0.4-0.3-0.5-0.5l-1.2-3.8   C220.3,138,219.5,137.9,219.1,138.4z"/>
	<path class="st10" d="M220.8,130.2c0,0-0.1,0-0.1,0c-1.3-0.1-2.3-1.2-2.3-2.5c1-16.8-2.9-34.3-10.8-49.2c-0.6-1.1-0.2-2.6,1-3.2   s2.6-0.1,3.2,1c8.3,15.6,12.3,34,11.3,51.6C223.1,129.2,222,130.2,220.8,130.2z"/>
	<path class="st10" d="M178.5,205.7c-0.7,0-1.5-0.3-1.9-1c-0.8-1-0.5-2.5,0.5-3.3c14.7-10.4,26.2-24.4,33.4-40.6   c0.5-1.2,1.9-1.7,3.2-1.2c1.2,0.5,1.8,1.9,1.3,3.1c-7.5,17-19.6,31.7-35,42.5C179.5,205.6,179,205.7,178.5,205.7z"/>
</g>
</svg>